<?xml version="1.0" encoding="utf-8"?>
<!-- Generator: Adobe Illustrator 25.1.0, SVG Export Plug-In . SVG Version: 6.00 Build 0)  -->
<svg version="1.1" id="Lager_1" xmlns="http://www.w3.org/2000/svg" xmlns:xlink="http://www.w3.org/1999/xlink" x="0px" y="0px"
	 viewBox="0 0 271.1 50.7" style="enable-background:new 0 0 271.1 50.7;" xml:space="preserve">
<style type="text/css">
	.st0{fill:#E8E2D1;}
</style>
<g>
	<polygon class="st0" points="21.1,18.8 15.1,49.8 0,49.8 9.6,0.7 25.4,0.7 46.4,31.2 52.4,0.7 67.4,0.7 57.8,49.8 42.9,49.8 	"/>
	<path class="st0" d="M101.1,12.1L89.7,30.5h16L101.1,12.1z M108.4,41.2H83.1l-5.4,8.6H61.5L92.6,0.7h20.4l13.4,49.2h-15.7
		L108.4,41.2z"/>
	<polygon class="st0" points="144.5,49.8 129.1,49.8 138.6,0.7 154,0.7 	"/>
	<g>
		<path class="st0" d="M180.7,40.1h0.5c9.7,0,11.2-3,11.2-5.4c0-2.5-1.5-4.3-8.2-4.5l-6.1-0.2c-15.8-0.5-19.7-6.8-19.7-14.3
			c0-6.9,3.6-15.6,26-15.6h2.4c22.9,0,25.9,7.6,24.8,15.5h-16.4c0-2.1-0.8-5.1-9.6-5.1H185c-9.1,0-10.4,2.2-10.4,4.5
			c0,2.1,1.5,3.6,7.9,3.8l6.1,0.2c16.7,0.5,20.4,6.3,20.4,14.7c0,7.7-4.3,17.1-27.7,17.1h-1.8c-24.1,0-26.2-10.2-25.4-17.2h16.7
			C170.8,35.7,171.2,40.1,180.7,40.1"/>
		<path class="st0" d="M239.9,40.1h0.5c9.7,0,11.2-3,11.2-5.4c0-2.5-1.5-4.3-8.2-4.5l-6.1-0.2c-15.8-0.5-19.7-6.8-19.7-14.3
			c0-6.9,3.6-15.6,26-15.6h2.4c22.9,0,25.9,7.6,24.8,15.5h-16.4c0-2.1-0.8-5.1-9.6-5.1h-0.6c-9.1,0-10.4,2.2-10.4,4.5
			c0,2.1,1.5,3.6,7.9,3.8l6.1,0.2c16.7,0.5,20.4,6.3,20.4,14.7c0,7.7-4.3,17.1-27.7,17.1h-1.8c-24.1,0-26.2-10.2-25.4-17.2h16.7
			C230.1,35.7,230.4,40.1,239.9,40.1"/>
	</g>
</g>
</svg>
