<?xml version="1.0" encoding="UTF-8" standalone="no"?>
<svg
   width="3.46667in"
   height="1.06667in"
   viewBox="0 0 1040 320"
   version="1.1"
   id="svg3"
   sodipodi:docname="alecs_logo.svg"
   inkscape:version="1.2.2 (b0a84865, 2022-12-01)"
   xmlns:inkscape="http://www.inkscape.org/namespaces/inkscape"
   xmlns:sodipodi="http://sodipodi.sourceforge.net/DTD/sodipodi-0.dtd"
   xmlns="http://www.w3.org/2000/svg"
   xmlns:svg="http://www.w3.org/2000/svg">
  <defs
     id="defs7" />
  <sodipodi:namedview
     id="namedview5"
     pagecolor="#ffffff"
     bordercolor="#666666"
     borderopacity="1.0"
     inkscape:showpageshadow="2"
     inkscape:pageopacity="0.0"
     inkscape:pagecheckerboard="0"
     inkscape:deskcolor="#d1d1d1"
     inkscape:document-units="in"
     showgrid="false"
     showguides="false"
     inkscape:zoom="3.8556891"
     inkscape:cx="151.33481"
     inkscape:cy="32.160269"
     inkscape:window-width="1420"
     inkscape:window-height="748"
     inkscape:window-x="47"
     inkscape:window-y="38"
     inkscape:window-maximized="0"
     inkscape:current-layer="layer1" />
  <path
     id="Selection"
     fill="none"
     stroke="#000000"
     stroke-width="1"
     d="m 757,117 c -5.52,-7.71 -12.49,-13.13 -21,-17.22 -27.28,-13.11 -59.14,-3.83 -78.83,18.22 -22.08,24.73 -25.03,64.13 -9.68,93 11.37,21.39 34.84,37.88 59.51,38 h 10 c 6.06,-0.07 13.41,-1.52 19,-3.87 7.09,-2.99 11.48,-5.76 17,-11.14 1.85,-1.81 8.47,-9.15 10.17,-9.83 3.69,-1.46 15.29,6.83 14.78,10.88 -0.57,4.56 -10.3,12.93 -13.95,15.72 -12.5,9.57 -30.18,16.16 -46,16.24 h -13 c -32.76,-0.05 -64.78,-21.67 -78.68,-51 -8.35,-17.61 -9.54,-31.95 -9.32,-51 0.42,-35.97 23.89,-69.14 57,-82.55 16.56,-6.71 27.68,-6.65 45,-6.45 14.45,0.17 31.47,6.65 43,15.16 5.58,4.11 10.42,8.27 13,14.84 -5.91,3.73 -11.1,9.3 -18,11 z m 47,122 c 3.46,-1.99 13.9,-10.32 16.96,-9.98 2.67,0.3 5.33,4.1 7.13,5.97 3.86,4.01 8.83,7.78 13.91,10.11 27.1,12.44 60.39,-4.62 58.91,-30.1 -0.75,-12.79 -8.17,-20.89 -18.91,-26.96 -13.67,-7.72 -43.98,-12.48 -59,-25.34 -8.85,-7.58 -12.64,-15.37 -14.27,-26.7 -3.58,-24.84 7.26,-46.34 31.27,-55.57 13.2,-5.08 21.3,-4.59 35,-4.43 12.36,0.15 25.33,5.06 35,12.67 2.43,1.91 8.65,6.63 7.66,10.16 -0.92,3.31 -12.89,12.48 -16.38,11.02 -1.61,-0.68 -4.82,-4.38 -6.29,-5.76 -3.61,-3.36 -7.4,-5.82 -11.99,-7.63 -19.88,-7.84 -48.59,0.57 -53.19,23.54 -2.85,14.22 3.51,23.14 15.19,30.56 19.6,12.45 42.33,11.6 62,27.9 12.3,10.2 15.17,22.32 15,37.54 -0.24,20.48 -13.66,37.43 -32,45.56 -13.19,5.85 -21.07,5.6 -35,5.44 -17.71,-0.21 -43.73,-10.98 -51,-28 z m -649.75581,26.11341 c 1.12,-5.99999 4.16,-11.42998 6.58,-16.99997 l 12.57,-28.99994 40.99,-93.9998 13.01,-29.999933 c 2.87,-6.669986 2.97,-10.859978 10.85,-10.999977 2.79,-0.04 11.29,-0.499999 13.3,0.989998 1.9,1.409997 4.89,9.46998 5.98,12.009974 l 12.3,27.999938 41.27,94.9998 19.15,44.99991 h -20.67343 c -10.32828,-17.24962 -57.0256,-131.90066 -67.32657,-156.99967 -23.76132,51.92856 -43.33686,109.82015 -66.41,155.97967 z m 197,-180.99962 h 20 v 163.99965 h 84 v 16.99997 h -104 z"
     sodipodi:nodetypes="ccccccccccccccccccccccsccccccccccccccccccccccccccccccccccccccccc"
     style="fill:#1a1a1a" />
  <g
     inkscape:groupmode="layer"
     id="layer1"
     inkscape:label="Layer 1">
    <path
       d="m 563.23862,130.24823 h 43 v 10.99998 h -43 z m -79,76.99984 c 2.31,28.23994 29.12,49.3899 57,40.24992 5.74,-1.88 11.46,-5.58999 15.99,-9.54998 l 7.18,-6.96999 c 3.87,-2.13999 13.62,5.63999 13.63,9.30998 0.02,3.24 -7.34,9.69998 -9.81,11.81998 -14.45,12.31997 -29.07,13.34997 -46.99,13.13997 -30.73,-0.37 -55.65,-29.21994 -56,-58.99988 -0.22,-19.45996 3.23,-35.27992 17.29,-49.82989 9.29,-9.61998 24.21,-17.00997 37.71,-17.16997 h 11 c 16,0.19 30.7,8.56999 40.48,20.99996 9.27,11.78998 10.34,21.85995 11.69,35.99992 l 0.83,10.99998 z m 80,-13.99997 c -0.02,-6.46999 -0.55,-12.02997 -3.32,-17.99996 -7.88,-16.97997 -20.67,-20.19996 -37.68,-19.99996 -6.97,0.09 -11.94,1.73 -18,5.16999 -12.65,7.17998 -19.83,18.48996 -21,32.82993 z"
       style="fill:#0000ff;stroke:#000000;stroke-width:1"
       id="path1230" />
  </g>
</svg>
